<svg width="1920" height="920" viewBox="0 0 1920 920" fill="none" xmlns="http://www.w3.org/2000/svg">
<g clip-path="url(#clip0_18_479)">
<path d="M-28.8331 767.855C368.661 637.64 504.306 494.038 553.464 385.098C608.323 263.517 580.032 130.633 639.251 122.381C677.17 117.095 723.829 166.715 810.818 275.488C1074.61 605.329 1080.58 692.923 1192.97 715.657C1350.41 747.528 1447.47 597.593 1689.48 600.825C1867.22 603.204 2011.06 686.685 2108 760.891" stroke="#4D9464" stroke-opacity="0.1" stroke-width="5" stroke-miterlimit="10"/>
<path d="M-38.3786 754.764C347.924 627.354 491.359 487.769 544.417 385.669C603.707 271.57 575.706 145.551 634.309 139.591C671.985 135.757 717.767 184.528 801.794 289.574C1057.16 608.759 1065.08 697.443 1176.6 719.055C1334.96 749.312 1427.78 588.531 1672.35 586.343C1677.69 586.295 1682.94 586.295 1688.19 586.39C1861.72 589.622 2007.6 673.143 2106.62 746.893" stroke="#4D9464" stroke-opacity="0.1" stroke-width="5" stroke-miterlimit="10"/>
<path d="M-47.8924 741.675C327.188 617.079 478.303 481.749 535.395 386.248C599.028 279.799 571.424 160.486 629.393 156.81C666.838 154.43 711.749 202.357 792.789 303.671C1039.67 612.186 1049.49 702.246 1160.27 722.454C1319.4 751.481 1408.18 579.391 1655.27 571.857C1660.7 571.69 1666.1 571.524 1671.5 571.544C1847.9 572.194 2001.37 657.44 2105.27 732.891" stroke="#4D9464" stroke-opacity="0.1" stroke-width="5" stroke-miterlimit="10"/>
<path d="M-57.4281 728.585C306.484 606.769 465.04 476.019 526.357 386.827C594.155 288.202 567.149 175.431 624.455 174.032C661.687 173.12 705.673 220.182 783.769 317.765C1022.19 615.644 1033.96 706.889 1143.93 725.852C1303.9 753.436 1388.6 570.183 1638.18 557.371C1643.72 557.085 1649.25 556.812 1654.77 556.693C1834.02 552.862 1995.08 641.733 2103.87 718.881" stroke="#4D9464" stroke-opacity="0.1" stroke-width="5" stroke-miterlimit="10"/>
<path d="M-66.9614 715.495C285.759 596.495 451.513 470.594 517.315 387.407C589.006 296.775 562.901 190.393 619.525 191.254C656.55 191.813 699.624 238.011 774.757 331.862C1004.72 619.086 1018.44 711.521 1127.59 729.247C1288.46 755.372 1369.04 560.908 1621.09 542.869C1626.74 542.473 1632.41 542.076 1638.09 541.83C1820.19 534.526 1988.84 626.018 2102.54 704.879" stroke="#4D9464" stroke-opacity="0.1" stroke-width="5" stroke-miterlimit="10"/>
<path d="M-76.4941 702.405C265.04 586.216 437.644 465.499 508.292 387.989C583.467 305.507 558.653 205.367 614.608 208.472C651.437 210.518 693.581 255.836 765.752 345.959C987.265 622.528 1002.94 716.137 1111.26 732.645C1273.01 757.291 1349.5 551.569 1604 528.395C1609.79 527.868 1615.57 527.332 1621.4 526.991C1806.33 516.245 1982.62 610.322 2101.19 690.889" stroke="#4D9464" stroke-opacity="0.1" stroke-width="5" stroke-miterlimit="10"/>
<path d="M-86.0206 689.314C244.315 575.925 423.324 460.728 499.245 388.568C577.353 314.326 554.442 220.36 609.667 225.694C646.313 229.231 687.52 273.676 756.723 360.052C969.782 625.966 987.426 720.741 1094.91 736.04C1257.58 759.194 1329.94 542.175 1586.9 513.909C1592.82 513.259 1598.71 512.593 1604.67 512.145C1792.43 497.98 1976.35 594.627 2099.81 676.887" stroke="#4D9464" stroke-opacity="0.1" stroke-width="5" stroke-miterlimit="10"/>
<path d="M-95.5533 676.224C223.591 565.639 390.88 444.64 490.21 389.147C550.372 314.172 550.223 235.374 604.738 242.912C641.2 247.956 681.472 291.489 747.712 374.169C952.31 629.428 971.927 725.349 1078.57 739.458C1242.15 761.097 1310.39 532.745 1569.8 499.443C1575.83 498.67 1581.87 497.877 1587.98 497.314C1778.58 479.766 1970.13 578.931 2098.46 662.904" stroke="#4D9464" stroke-opacity="0.1" stroke-width="5" stroke-miterlimit="10"/>
<path d="M-105.086 663.134C202.872 555.352 374.681 437.577 481.175 389.726C542.095 321.409 546.005 250.407 599.809 260.134C636.093 266.693 675.417 309.306 738.694 388.247C934.808 632.85 956.44 729.905 1062.23 742.836C1226.73 762.941 1290.83 523.224 1552.71 484.937C1558.86 484.037 1565.02 483.117 1571.28 482.443C1764.71 461.541 1963.86 563.208 2097.1 648.882" stroke="#4D9464" stroke-opacity="0.1" stroke-width="5" stroke-miterlimit="10"/>
<path d="M-114.619 650.044C182.147 545.066 358.477 430.523 472.134 390.305C533.812 328.642 541.787 265.456 594.88 277.352C630.98 285.438 669.368 327.135 729.677 402.34C917.365 636.304 940.958 734.461 1045.89 746.227C1211.33 764.782 1271.26 513.675 1535.62 470.444C1541.88 469.42 1548.18 468.378 1554.57 467.588C1750.85 443.351 1957.61 547.497 2095.74 634.876" stroke="#4D9464" stroke-opacity="0.1" stroke-width="5" stroke-miterlimit="10"/>
<path d="M-124.149 636.954C161.431 534.779 342.276 423.464 463.096 390.888C525.533 335.883 537.56 280.529 589.942 294.574C625.859 304.203 663.316 344.968 720.663 416.426C899.89 639.722 925.48 738.998 1029.55 749.617C1195.92 766.594 1251.67 504.079 1518.52 455.95C1524.91 454.796 1531.33 453.638 1537.86 452.73C1736.99 425.181 1951.36 531.786 2094.37 620.866" stroke="#4D9464" stroke-opacity="0.1" stroke-width="5" stroke-miterlimit="10"/>
<path d="M-133.681 623.86C140.694 524.497 326.09 416.406 454.067 391.483C517.262 343.136 533.33 295.625 585.007 311.813C620.728 322.995 657.261 362.809 711.64 430.551C882.413 643.192 909.999 743.554 1013.22 753.04C1180.53 768.422 1232.06 494.49 1501.43 441.492C1507.94 440.211 1514.46 438.93 1521.16 437.923C1723.15 407.079 1945.11 516.118 2093.01 606.904" stroke="#4D9464" stroke-opacity="0.1" stroke-width="5" stroke-miterlimit="10"/>
<path d="M-143.214 610.77C119.975 514.211 309.867 409.347 445.026 392.046C508.979 350.357 529.07 310.71 580.084 329.015C615.597 341.76 651.212 380.621 702.628 444.632C864.97 646.618 894.535 748.055 996.87 756.422C1165.14 770.178 1212.42 484.807 1484.33 426.99C1490.96 425.578 1497.63 424.182 1504.48 423.044C1709.33 388.941 1938.87 500.371 2091.66 592.878" stroke="#4D9464" stroke-opacity="0.1" stroke-width="5" stroke-miterlimit="10"/>
<path d="M-152.728 597.68C99.2513 503.924 293.664 402.293 435.992 392.633C500.698 357.602 524.8 325.818 575.156 346.237C610.456 360.552 645.164 398.446 693.618 458.726C847.481 650.06 879.067 752.568 980.53 759.821C1149.76 771.931 1192.77 475.099 1467.24 412.504C1473.99 410.961 1480.79 409.446 1487.76 408.193C1695.49 370.823 1932.61 484.68 2090.32 578.876" stroke="#4D9464" stroke-opacity="0.1" stroke-width="5" stroke-miterlimit="10"/>
<path d="M-162.274 584.59C78.5256 493.638 277.465 395.234 426.956 393.208C492.42 364.835 520.516 340.931 570.226 363.467C605.295 379.356 639.114 416.279 684.576 472.831C829.984 653.51 863.573 757.053 964.165 763.223C1134.35 773.664 1173.06 465.415 1450.12 398.022C1456.99 396.353 1463.92 394.723 1471.03 393.351C1681.65 352.736 1926.33 468.984 2088.9 564.882" stroke="#4D9464" stroke-opacity="0.1" stroke-width="5" stroke-miterlimit="10"/>
<path d="M-171.806 571.5C57.801 483.351 261.261 388.176 417.915 393.787C484.144 372.072 516.209 356.051 565.297 380.677C600.123 398.149 633.06 434.1 675.588 486.92C812.536 656.94 848.127 761.518 947.855 766.614C1118.99 775.357 1153.38 455.656 1433.05 383.548C1440.04 381.748 1447.1 380.003 1454.38 378.516C1667.87 334.65 1920.1 453.269 2087.57 550.856" stroke="#4D9464" stroke-opacity="0.1" stroke-width="5" stroke-miterlimit="10"/>
<path d="M-181.339 558.41C37.0815 473.069 245.057 381.133 408.88 394.366C475.831 379.297 511.884 371.18 560.367 397.899C594.933 416.953 627.01 451.925 666.571 501.002C795.064 660.366 832.657 765.963 931.514 769.992C1103.6 777.011 1133.64 445.877 1415.96 369.026C1423.07 367.091 1430.26 365.235 1437.65 363.629C1654.08 316.583 1913.87 437.566 2086.2 536.869" stroke="#4D9464" stroke-opacity="0.1" stroke-width="5" stroke-miterlimit="10"/>
<path d="M-190.872 545.304C16.3567 462.766 228.853 374.047 399.839 394.933C467.578 386.53 507.541 386.288 555.426 415.101C589.731 435.722 620.955 469.734 657.547 515.095C777.586 663.801 817.182 770.409 915.167 773.391C1088.22 778.673 1113.88 436.11 1398.86 354.564C1406.09 352.494 1413.41 350.527 1420.94 348.802C1640.3 298.532 1907.6 421.866 2084.84 522.887" stroke="#4D9464" stroke-opacity="0.1" stroke-width="5" stroke-miterlimit="10"/>
<path d="M-200.402 532.218C-4.37109 452.512 210.4 416.794 390.807 395.528C458.315 387.569 503.19 401.432 550.5 432.339C584.527 454.546 614.91 487.578 648.539 529.208C760.117 667.266 801.709 774.858 898.83 776.805C1072.82 780.29 1094.1 426.308 1381.77 340.066C1389.1 337.869 1396.58 335.788 1404.23 333.944C1626.53 280.477 1901.33 406.155 2083.48 508.865" stroke="#4D9464" stroke-opacity="0.1" stroke-width="5" stroke-miterlimit="10"/>
<path d="M-209.935 519.132C-25.0782 442.201 192.365 371.108 381.772 396.099C450.097 405.116 498.818 416.549 545.571 449.553C579.307 473.346 608.855 505.395 639.522 543.297C742.651 670.7 786.228 779.267 882.49 780.191C1057.42 781.873 1074.28 416.485 1364.67 325.573C1372.13 323.241 1379.74 321.06 1387.53 319.089C1612.94 262.735 1895.1 390.448 2082.14 494.863" stroke="#4D9464" stroke-opacity="0.1" stroke-width="5" stroke-miterlimit="10"/>
<path d="M-219.467 506.046C-45.8149 431.919 177.624 358.435 372.737 396.682C441.945 410.252 494.434 431.677 540.642 466.775C574.076 492.155 602.806 523.228 630.505 557.395C725.178 674.146 770.747 783.955 866.149 783.594C1042.01 782.928 1054.24 406.381 1347.58 311.091C1355.14 308.616 1362.89 306.333 1370.82 304.242C1599.12 244.558 1888.85 374.741 2080.76 480.857" stroke="#4D9464" stroke-opacity="0.1" stroke-width="5" stroke-miterlimit="10"/>
<path d="M-229 492.96C-66.5397 421.64 164.039 345.84 363.696 397.268C664.68 474.81 690.72 788.816 849.815 786.992C1031.18 784.914 1034.88 376.41 1354.12 289.395C1585.3 226.384 1882.62 359.037 2079.39 466.863" stroke="#4D9464" stroke-opacity="0.1" stroke-width="5" stroke-miterlimit="10"/>
</g>
<defs>
<clipPath id="clip0_18_479">
<rect width="1920" height="920" fill="white"/>
</clipPath>
</defs>
</svg>
